<?xml version="1.0" encoding="UTF-8" standalone="no"?><!DOCTYPE svg PUBLIC "-//W3C//DTD SVG 1.1//EN" "http://www.w3.org/Graphics/SVG/1.1/DTD/svg11.dtd"><svg width="100%" height="100%" viewBox="0 0 330 371" version="1.1" xmlns="http://www.w3.org/2000/svg" xmlns:xlink="http://www.w3.org/1999/xlink" xml:space="preserve" xmlns:serif="http://www.serif.com/" style="fill-rule:evenodd;clip-rule:evenodd;"><path d="M166.084,3.079c23.292,15.492 47.117,30.188 71.475,44.079c-77.338,79.367 -150.679,125.204 -220.025,137.504c-10.546,-34.925 -15.692,-69.175 -15.442,-102.75c53.754,-14.183 108.358,-40.917 163.813,-80.213" style="fill:url(#_Linear1);fill-rule:nonzero;"/><path d="M166.084,3.079c23.292,15.492 47.117,30.188 71.475,44.079c-77.338,79.367 -150.679,125.204 -220.025,137.504c-10.546,-34.925 -15.692,-69.175 -15.442,-102.75c53.754,-14.183 108.358,-40.917 163.813,-80.213" style="fill:none;fill-rule:nonzero;stroke:#000;stroke-width:4.17px;"/><path d="M261.271,58.491c-36.296,70.179 -108.221,133.692 -215.775,190.533c-6.988,-11.121 -14.046,-26.808 -21.183,-47.067c74.696,-15.738 152.742,-63.838 234.129,-144.304" style="fill:#f8ebc2;fill-rule:nonzero;"/><path d="M261.271,58.491c-36.296,70.179 -108.221,133.692 -215.775,190.533c-6.988,-11.121 -14.046,-26.808 -21.183,-47.067c74.696,-15.738 152.742,-63.838 234.129,-144.304" style="fill:none;fill-rule:nonzero;stroke:#000;stroke-width:4.17px;"/><path d="M282.15,68.454c-47.496,114.858 -110.225,195.417 -188.192,241.679c-14.062,-12.542 -26.342,-27.454 -36.842,-44.742c92.838,-44.775 166.842,-110.679 222.021,-197.713" style="fill:#e1c66d;fill-rule:nonzero;"/><path d="M282.15,68.454c-47.496,114.858 -110.225,195.417 -188.192,241.679c-14.062,-12.542 -26.342,-27.454 -36.842,-44.742c92.838,-44.775 166.842,-110.679 222.021,-197.713" style="fill:none;fill-rule:nonzero;stroke:#000;stroke-width:4.17px;"/><path d="M326.055,83.191l-26.387,-7.608c-53.05,126.367 -116.654,209.342 -190.817,248.921c19.525,17.796 37.85,31.425 54.975,40.888c105.583,-74.413 159.658,-168.48 162.229,-282.2Z" style="fill:url(#_Linear2);fill-rule:nonzero;stroke:#000;stroke-width:4.17px;"/><defs><linearGradient id="_Linear1" x1="0" y1="0" x2="1" y2="0" gradientUnits="userSpaceOnUse" gradientTransform="matrix(235.475416,0,0,182.962671,2.083334,93.181165)"><stop offset="0" style="stop-color:#6900ff;stop-opacity:1"/><stop offset="1" style="stop-color:#e3cfff;stop-opacity:1"/><stop offset="1" style="stop-color:#fff;stop-opacity:1"/></linearGradient><linearGradient id="_Linear2" x1="0" y1="0" x2="1" y2="0" gradientUnits="userSpaceOnUse" gradientTransform="matrix(217.204167,0,0,289.808333,108.850417,220.4875)"><stop offset="0" style="stop-color:#5b05f6;stop-opacity:1"/><stop offset="0.75" style="stop-color:#a677fa;stop-opacity:1"/><stop offset="1" style="stop-color:#fff;stop-opacity:1"/></linearGradient></defs></svg>